<svg width="139" height="34" viewBox="0 0 139 34" fill="none" xmlns="http://www.w3.org/2000/svg">
<path d="M18.0685 30.7877C13.0507 30.7877 9.61327 27.9827 7.99334 23.6765C7.16363 21.5432 6.76852 19.2123 6.76852 16.6444C6.76852 9.41481 10.0084 4.39753 17.1598 4.39753C21.98 4.39753 24.9433 6.49136 26.6423 11.5086H28.6968L28.4202 4.59506C25.536 2.73827 21.9405 1.79012 17.5549 1.79012C11.3912 1.79012 6.13635 4.55556 3.21258 9.53333C1.7507 12.0222 1 14.9062 1 18.1852C1 23.716 3.60769 28.6148 8.50698 31.3407C10.9566 32.7235 13.8804 33.3951 17.2388 33.3951C22.0195 33.3951 25.8125 32.4864 29.1709 30.9062L30.0402 23.2815H27.9461C26.6818 26.758 25.1804 28.8519 22.6912 29.958C21.4664 30.5111 19.9255 30.7877 18.0685 30.7877ZM39.7202 4.39753L39.9178 1H38.4954L32.1737 2.8963V3.92346L34.979 5.22716V29.0099C34.979 30.6296 34.1492 30.9852 31.9762 31.2617V33H42.723V31.2617C40.5499 30.9852 39.7202 30.6296 39.7202 29.0099V4.39753ZM82.4705 33.3951H83.3002L90.5701 32.0123V30.2346L89.5428 30.1556C87.8439 29.9975 87.4093 29.642 87.4093 28.2593V15.5778L87.6068 11.5086H86.461L79.5862 12.4963V14.2346L80.2579 14.3531C82.1149 14.6296 82.668 15.1432 82.668 16.4469V27.7457C80.8901 29.1284 79.1911 29.9975 77.1761 29.9975C74.924 29.9975 73.5411 28.8519 73.5411 26.2049V15.5778L73.7387 11.5086H72.5534L65.6786 12.4963V14.2346L66.3897 14.3531C68.2467 14.6296 68.7999 15.1432 68.7999 16.4469V26.8765C68.7999 31.3012 71.289 33.3951 75.2796 33.3951C78.3219 33.3951 80.811 31.7753 82.668 29.5235L82.4705 33.3951ZM62.4782 19.3309C62.4782 13.6815 59.4754 11.5086 54.0625 11.5086C49.2817 11.5086 45.8048 13.4839 45.8048 16.763C45.8048 17.7506 46.1604 18.5012 46.8716 19.0148L50.5066 18.5407C50.3485 17.4346 50.2695 16.763 50.2695 16.4864C50.2695 14.6296 51.2573 13.6815 53.2723 13.6815C56.2356 13.6815 57.737 15.7753 57.737 19.1333V20.2395L50.23 22.4914C47.7408 23.163 46.3185 23.7556 45.3702 25.1383C44.8961 25.8494 44.659 26.7975 44.659 27.9432C44.659 31.1432 46.8716 33.3951 50.6251 33.3951C53.3513 33.3951 55.7614 32.1704 57.8555 29.8395C58.6062 32.1704 59.752 33.3951 61.8065 33.3951C63.466 33.3951 64.9674 32.7235 66.3107 31.4198L65.9156 30.037C65.323 30.1951 64.7698 30.2741 64.1772 30.2741C63.0314 30.2741 62.4782 29.3654 62.4782 27.5877V19.3309ZM52.8772 30.1951C50.8226 30.1951 49.5583 29.0099 49.5583 26.916C49.5583 25.4938 50.23 24.6642 51.6524 24.1901L57.737 22.2543V28.1012C55.8009 29.563 54.6551 30.1951 52.8772 30.1951ZM116.173 32.0123V30.2346L115.146 30.1556C113.447 29.9975 113.012 29.642 113.012 28.2593V4.39753L113.21 1H111.787L105.466 2.8963V3.92346L108.271 5.22716V13.0494C106.888 12.0222 105.07 11.5086 102.897 11.5086C96.6152 11.5086 91.7159 16.2889 91.7159 23.4395C91.7159 29.3259 95.2323 33.3951 101.04 33.3951C104.043 33.3951 106.651 31.9333 108.271 29.6815L108.073 33.3951H108.903L116.173 32.0123ZM103.016 13.879C106.019 13.879 108.271 15.6173 108.271 18.8173V27.8247C107.006 29.1284 105.149 29.9185 103.055 29.9185C98.7488 29.9185 96.5757 26.521 96.5757 21.9778C96.5757 16.8815 99.0649 13.879 103.016 13.879ZM131.542 18.3827C130.989 15.7358 129.369 14.2346 127.117 14.2346C123.759 14.2346 121.428 16.763 121.428 20.3975C121.428 25.7704 124.273 29.2469 128.856 29.2469C131.898 29.2469 134.782 27.5086 136.244 24.9012L137.588 25.2568C136.995 29.9185 132.767 33.3951 127.591 33.3951C121.507 33.3951 117.319 28.8914 117.319 22.4914C117.319 16.0519 121.862 11.5086 127.947 11.5086C132.491 11.5086 135.691 14.2346 136.718 18.9753L120.875 23.8346V21.7012L131.542 18.3827Z" fill="#141413"/>
</svg>
